<svg width="95" height="198" viewBox="0 0 95 198" fill="none" xmlns="http://www.w3.org/2000/svg">
<path d="M61.0455 48.7245C61.8705 70.0563 66.4799 91.2756 67.2641 112.601C67.7898 126.895 67.3517 141.246 67.3517 155.549C67.3517 163.305 68.9485 170.378 70.1545 178.039C71.0244 183.565 70.5048 189.334 70.5048 194.906C70.5048 197.971 70.5048 198.468 70.5048 194.906" stroke="#EBB730" stroke-width="7" stroke-linecap="round"/>
<path d="M59.4688 30.4518C72.2516 30.4518 69.5348 37.727 71.731 46.538C73.5426 53.8064 71.5961 58.5636 62.7095 58.5636C52.9905 58.5636 52.0852 47.3375 51.6736 40.9156C51.1796 33.2088 60.1589 25.4446 67.3516 31.8574" stroke="#EBB730" stroke-width="7" stroke-linecap="round"/>
<path d="M75.2344 38.8854C87.759 38.8854 86.0471 29.9974 89.4235 20.6128C90.6347 17.2462 93.0324 3.44891 83.9931 5.46366C75.1045 7.44482 79.0535 14.7868 76.4606 19.9881C74.5205 23.8801 72.0813 28.8099 72.0813 33.2631C72.0813 46.2919 70.5047 26.6684 70.5047 22.6431C70.5047 16.5035 69.2665 7.95686 62.6219 4.83895C50.812 -0.702722 46.6269 22.8169 51.586 28.3435C57.9151 35.3969 51.6817 29.5967 46.1556 27.016C39.3434 23.8347 26.3611 16.7925 26.3611 28.3435C26.3611 41.9884 28.3273 47.9365 43.6156 50.2082C46.6533 50.6596 56.0015 50.6882 51.4984 51.6919C40.8543 54.0644 43.7032 68.0187 43.7032 75.1965C43.7032 83.1091 49.1886 83.5047 55.4398 78.9447C63.2251 73.2657 64.1985 69.9282 64.1985 61.3749" stroke="#EBB730" stroke-width="7" stroke-linecap="round"/>
<path d="M65.775 58.5636C67.8496 58.7948 69.1674 63.7713 70.5047 65.2792C73.4467 68.5965 77.2577 71.1474 80.6648 74.0251C88.3592 80.524 91 67.6233 91 62.0776C91 52.9494 83.6945 38.8854 72.0813 38.8854" stroke="#EBB730" stroke-width="7" stroke-linecap="round"/>
<path d="M67.3516 142.899C66.4018 134.855 53.0212 125.471 47.2067 119.629C40.8649 113.257 33.8003 106.94 26.8865 101.044C20.4603 95.5634 14.9697 89.7944 8.66852 84.1766C3.64542 79.6983 2.26395 77.9971 6.56644 85.8946C20.2449 111.002 45.0188 138.262 72.0813 152.738" stroke="#EBB730" stroke-width="7" stroke-linecap="round"/>
</svg>
