<svg width="95" height="198" viewBox="0 0 95 198" fill="none" xmlns="http://www.w3.org/2000/svg">
<path d="M33.9546 48.7245C33.1295 70.0563 28.5201 91.2756 27.7359 112.601C27.2102 126.895 27.6483 141.246 27.6483 155.549C27.6483 163.305 26.0515 170.378 24.8455 178.039C23.9756 183.565 24.4952 189.334 24.4952 194.906C24.4952 197.971 24.4952 198.468 24.4952 194.906" stroke="#EBB730" stroke-width="7" stroke-linecap="round"/>
<path d="M35.5312 30.4518C22.7484 30.4518 25.4652 37.727 23.269 46.538C21.4574 53.8064 23.4039 58.5636 32.2905 58.5636C42.0095 58.5636 42.9148 47.3375 43.3264 40.9156C43.8203 33.2088 34.8411 25.4446 27.6484 31.8574" stroke="#EBB730" stroke-width="7" stroke-linecap="round"/>
<path d="M19.7656 38.8854C7.24103 38.8854 8.95287 29.9974 5.57655 20.6128C4.36536 17.2462 1.96764 3.44891 11.0069 5.46366C19.8955 7.44482 15.9465 14.7868 18.5394 19.9881C20.4796 23.8801 22.9187 28.8099 22.9187 33.2631C22.9187 46.2919 24.4953 26.6684 24.4953 22.6431C24.4953 16.5035 25.7335 7.95686 32.3781 4.83895C44.188 -0.702722 48.3731 22.8169 43.414 28.3435C37.0849 35.3969 43.3183 29.5967 48.8444 27.016C55.6566 23.8347 68.639 16.7925 68.639 28.3435C68.639 41.9884 66.6727 47.9365 51.3844 50.2082C48.3467 50.6596 38.9985 50.6882 43.5016 51.6919C54.1457 54.0644 51.2968 68.0187 51.2968 75.1965C51.2968 83.1091 45.8114 83.5047 39.5602 78.9447C31.7749 73.2657 30.8015 69.9282 30.8015 61.3749" stroke="#EBB730" stroke-width="7" stroke-linecap="round"/>
<path d="M29.225 58.5636C27.1504 58.7948 25.8326 63.7713 24.4953 65.2792C21.5533 68.5965 17.7423 71.1474 14.3352 74.0251C6.64085 80.524 4 67.6233 4 62.0776C4 52.9494 11.3055 38.8854 22.9187 38.8854" stroke="#EBB730" stroke-width="7" stroke-linecap="round"/>
<path d="M27.6484 142.899C28.5982 134.855 41.9789 125.471 47.7934 119.629C54.1351 113.257 61.1997 106.94 68.1135 101.044C74.5398 95.5634 80.0303 89.7944 86.3315 84.1766C91.3546 79.6983 92.7361 77.9971 88.4336 85.8946C74.7551 111.002 49.9813 138.262 22.9188 152.738" stroke="#EBB730" stroke-width="7" stroke-linecap="round"/>
</svg>
