<svg width="236" height="312" viewBox="0 0 236 312" fill="none" xmlns="http://www.w3.org/2000/svg">
<path d="M125.763 109.339C125.763 88.1567 117.411 62.491 108.209 43.6409C102.013 30.9504 90.7636 5.63525 75.5336 2.27569C65.4839 0.0588395 51.4329 11.7784 44.1621 17.1359C32.0706 26.0454 24.2085 37.1207 17.5702 50.5061C3.77435 78.324 -1.2561 111.548 4.10043 142.187C9.10058 170.788 22.735 190.228 38.1659 213.968C49.666 231.661 65.08 245.287 80.3132 259.505C86.5137 265.292 90.737 272.665 96.39 278.971C103.239 286.61 110.791 293.531 117.942 300.87C118.872 301.825 126.643 311.278 127.327 310.081C129.243 306.728 131.929 304.298 133.758 300.87C137.363 294.109 145.852 288.002 150.79 282.099C161.235 269.613 171.369 256.286 178.599 241.603C190.137 218.172 194.827 192.742 204.322 168.779C214.609 142.818 223.719 114.914 230.479 87.8738C234.984 69.8528 233.695 51.1415 233.695 32.6913C233.695 23.6264 226.424 9.8419 216.401 7.8374C159.066 -3.62971 125.763 72.9224 125.763 118.724" stroke="#E75935" stroke-width="3" stroke-linecap="round"/>
</svg>
