<svg width="371" height="523" viewBox="0 0 371 523" fill="none" xmlns="http://www.w3.org/2000/svg">
<path d="M5.99398 468.941C5.99398 478.688 4.77437 488.583 4.77437 498.441C4.77437 502.053 1.8088 502.964 7.48462 504.49C20.1953 507.906 34.0415 509.123 47.1899 510.044C78.2539 512.22 109.263 512.266 140.423 512.266C164.623 512.266 188.751 515.598 213.057 515.598C225.718 515.598 238.166 516.161 250.73 516.647C270.462 517.412 290.948 520.243 310.627 518.684C317.874 518.11 324.955 517.82 332.241 517.82C340.512 517.82 348.988 518.295 357.243 517.758C360.119 517.571 367 517.695 367 514.487C367 507.996 365.78 501.641 365.78 495.17C365.78 492.111 367.532 466.06 364.561 465.609C359.579 464.852 353.519 464.75 348.503 464.559C326.977 463.743 305.646 461.513 284.066 461.165C263.377 460.832 242.522 458.375 221.866 456.968C208.803 456.079 195.45 456.722 182.364 456.722C158.265 456.722 134.881 452.278 110.745 452.278C79.4719 452.278 48.4062 453.389 17.2415 453.389C13.1697 453.389 2.01385 451.336 4.50334 456.722C5.89888 459.741 2.6391 468.524 5.99398 470.052" stroke="#F9F1E4" stroke-width="7" stroke-linecap="round"/>
<path d="M48.6805 453.389C54.0364 452.779 53.5197 438.079 54.7786 434.504C57.961 425.467 57.2178 416.419 57.2178 406.979C57.2178 384.719 58.4374 362.027 58.4374 340.079C58.4374 333.676 59.2819 327.345 59.657 321.194C59.7957 318.921 59.725 310.841 61.1477 309.221C63.8316 306.165 73.1011 307.863 76.6639 307.863C85.477 307.863 93.4154 308.763 102.073 309.838C110.272 310.857 118.922 310.525 127.21 311.196C134.281 311.769 141.233 314.107 148.147 314.467C181.824 316.22 215.28 320.755 248.901 322.367C264.902 323.134 280.764 323.416 296.804 323.416C301.067 323.416 305.418 323.188 309.678 323.416C312.233 323.553 310.898 334.075 310.898 335.759C310.898 349.463 312.744 364.457 309.068 377.849C305.563 390.619 306.019 405.234 306.019 418.396C306.019 432.679 306.019 447.355 306.019 461.165" stroke="#F9F1E4" stroke-width="7" stroke-linecap="round"/>
<path d="M142.591 312.307C142.853 310.156 146.672 307.93 148.011 306.135C151.548 301.398 154.888 296.401 158.446 291.57C168.742 277.592 176.397 262.019 181.619 245.901C184.49 237.038 187 228.108 189.885 219.24C193.138 209.24 198.456 235.209 198.693 238.125C199.522 248.312 201.701 259.056 203.707 269.106C204.724 274.202 207.303 278.752 208.179 284.041C209 288.996 208.389 292.733 211.364 297.248C213.798 300.944 212.235 305.781 214.548 309.468C216.097 311.937 219.427 319.594 219.427 316.75" stroke="#F9F1E4" stroke-width="7" stroke-linecap="round"/>
<path d="M188.936 218.993C188.936 170.295 188.936 121.271 188.936 72.3565" stroke="#F9F1E4" stroke-width="7" stroke-linecap="round"/>
<path d="M206.011 30.143C189.126 30.143 169.329 26.3626 159.937 43.4736C157.949 47.0942 158.876 57.0885 161.834 59.8899C166.594 64.3996 171.452 65.0897 178.502 66.8021C184.338 68.2196 192.11 69.0238 198.151 69.0238C205.58 69.0238 210.46 63.0758 212.651 56.8042C214.48 51.568 214.907 47.2724 213.329 42.2393C211.683 36.9924 207.23 37.0172 207.23 30.143" stroke="#F9F1E4" stroke-width="7" stroke-linecap="round"/>
<path d="M207.553 29.8244C190.686 29.8244 173.82 29.8244 156.953 29.8244C148.577 29.8244 145.255 25.8397 148.213 17.7576C151.699 8.23291 172.058 6.06888 181.425 4.51761C186.304 3.70954 191.746 4.05716 196.697 4.18242C201.741 4.31006 204.235 7.52094 208.473 8.62367C212.449 9.65856 225.494 13.2606 225.768 17.7576C226.45 28.9371 211.615 31.3327 202.585 31.3327" stroke="#F9F1E4" stroke-width="7" stroke-linecap="round"/>
<path d="M186.025 108.258C174.243 107.185 159.781 100.487 150.421 109.013C145.826 113.198 137.241 126.868 142.969 132.392C149.618 138.805 153.839 134.742 162.197 137.085C167.27 138.507 180.608 145.277 184.369 138.425" stroke="#F9F1E4" stroke-width="7" stroke-linecap="round"/>
<path d="M190.993 109.767C198.257 109.378 205.33 106.155 212.613 105.326C222.494 104.201 230.98 102.375 240.304 99.5436C248.093 97.179 257.111 97.7001 265.512 97.7001" stroke="#F9F1E4" stroke-width="7" stroke-linecap="round"/>
<path d="M176.107 355.359C179.376 362.243 180.059 366.312 177.245 374.302L171.156 373.031C171.135 366.562 171.013 362.985 170.344 356.805C168.648 351.006 167.519 348.088 165.242 343.377C162.951 339.247 161.632 337.077 158.97 334.527C162.044 334.474 164.372 334.9 170.316 337.009C174.542 340.228 176.602 342.649 180.035 347.457C184.982 355.373 187.188 360.458 189.107 372.574C189.008 377.361 188.666 380.252 187.739 385.636L185.583 393.666C188.406 393.986 190.191 394.391 193.921 395.723C197.307 396.835 199.406 397.307 203.399 397.966L195.55 367.55C189.522 352.259 186.493 339.991 185.044 336.215C189.02 336.516 191.209 336.844 194.975 337.973C198.61 345.207 205.388 358.437 212.948 373.27C213.525 373.512 213.772 373.444 214.028 372.831L209.492 358.822C207.267 349.584 205.913 344.524 203.427 335.582C207.695 335.966 210.061 336.39 214.125 338.328C217.523 349.83 220.104 356.403 227.327 368.616C229.55 372.223 230.814 374.211 233.176 377.539C240.156 381.564 243.947 383.961 250.281 388.73C247.736 391.103 246.415 393.872 244.221 401.451C243.489 404.571 243.354 406.64 243.83 411.164C244.166 413.593 244.582 414.645 245.443 416.359C238.776 415.297 236.224 414.262 232.981 411.93C232.528 407.768 232.278 405.43 232.704 399.889C234.03 394.315 234.664 391.218 238.823 384.892C233.387 381.245 230.735 379.013 224.07 375.944C224.902 379.631 225.687 382.129 226.88 386.304L230.075 400.009C226.195 400.068 223.646 399.135 218.968 397.129C215.066 390.459 212.971 386.64 209.334 379.744C208.979 379.412 208.793 379.356 208.5 379.683C209.192 383.01 209.614 384.728 210.447 387.493L218.892 416.917C214.461 416.099 212.017 415.387 207.687 413.926C207.273 410.491 206.793 408.636 205.152 405.555C203.683 403.015 202.507 401.692 199.936 399.476C197.768 397.779 196.429 397.144 193.869 396.444C190.724 396.077 188.877 396.085 185.366 396.655C182.015 398.064 180.654 398.688 178.328 399.771C176.901 395.094 176.248 392.262 175.116 387.351L175.058 387.097C176.572 384.155 177.234 381.773 177.729 374.856C178.513 373.57 178.906 372.736 179.57 371.155C179.825 369.038 179.946 367.819 179.61 364.837C179.622 363.207 179.535 362.238 179.299 360.461C178.668 358.593 178.169 357.363 176.986 354.801C176.527 354.654 176.341 354.787 176.107 355.359Z" fill="#F9F1E4"/>
<path d="M115.788 398.4L105.122 395.535C97.1721 407.328 91.2531 413.465 81.9863 424.678L83.8946 425.757L93.1861 428.835C93.7677 427.228 94.1605 426.922 95.9904 426.218C95.9904 426.218 101.775 421.592 114.134 421.163C126.493 420.734 123.311 422.147 126.875 422.82C130.438 423.493 131.245 425.031 132.121 428.322C132.936 431.381 142.099 431.253 142.832 431.704C141.124 418.192 140.491 410.055 138.52 396.395C136.271 384.106 134.692 377.39 131.557 365.587C128.313 352.044 126.296 344.512 121.278 331.507C117.149 329.753 114.803 329.038 110.492 328.842C118.853 348.406 119.475 362.153 123.964 383.738C117.382 381.162 113.474 380.082 106.368 378.384C107.983 377.604 108.571 375.221 109.189 368.349C109.866 358.289 109.368 353.722 107.32 346.584C105.504 338.791 102.523 336.055 98.0522 330.237C94.139 328.925 91.9304 328.439 87.9495 328.249C90.137 330.314 91.0482 331.523 91.6207 333.844C93.788 338.86 94.3765 341.912 93.5132 348.088C92.3639 353.925 91.8478 357.156 89.4542 362.213C87.0225 365.677 85.4112 367.453 82.2156 369.732C84.5404 371.504 86.8549 372.563 92.1237 372.96C94.2592 372.415 95.3921 371.806 97.2465 370.094C99.2982 363.039 99.492 359.136 99.5937 352.187C101.079 352.604 100.098 356.264 99.729 363.273C97.3589 373.355 96.099 376.376 93.8907 380.299C90.5848 383.65 89.3439 385.327 87.2459 388.279C91.3913 390 93.7298 390.938 98.5137 391.502C98.5137 391.502 101.27 387.248 104.041 385.947C109.515 383.377 112.193 381.543 114.902 381.826C120.544 382.415 126.616 390.41 126.616 390.41C129.223 407.64 131.669 422.337 130.814 421.853C122.397 418.824 117.845 417.243 114.436 417.005C111.027 416.767 107.096 417.168 101.752 417.442C107.594 410.146 110.816 406.035 115.788 398.4Z" fill="#F9F1E4"/>
<path d="M141.77 359.788C142.127 369.243 140.341 369.812 138.44 373.889C136.58 374.133 135.404 374.025 133.124 373.503L131.287 365.63C134.22 361.364 134.981 358.422 133.575 351.453C131.558 343.054 130.341 339.881 127.993 337.425C125.848 334.516 124.282 333.141 121.13 330.942C125.436 331.275 127.784 331.68 131.627 333.562C137.159 337.418 140.086 339.764 144.311 345.009C148.115 350.56 149.723 353.937 151.567 360.5C152.972 367.293 152.777 371.029 151.371 377.615C150.136 381.252 149.339 383.194 147.789 386.539C151.375 386.873 153.382 387.068 156.693 388.012C160.21 388.641 162.103 389.192 165.544 390.203C161.481 367.83 155.291 354.903 148.222 331.569L158.562 333.456C168.182 361.952 172.977 378.335 180.692 408.124C176.691 407.613 174.373 407.089 169.994 405.386C169.094 401.267 168.215 398.978 164.777 394.997L160.489 390.558C157.125 390.071 155.187 389.923 151.63 389.914C145.686 390.66 142.78 392.122 138.273 396.373C137.54 392.57 135.627 384.121 135.528 383.687C135.528 383.687 138.596 380.515 140.465 371.973C141.848 370.05 142.503 368.247 142.812 359.863C142.387 359.207 142.157 359.151 141.77 359.788Z" fill="#F9F1E4"/>
<path d="M249.899 389.091L265.603 371.044L256.106 365.398L241.881 370.269L240.136 356.963C246.552 361.372 250.309 362.826 257.46 362.545C254.357 352.942 253.207 348.052 252.791 340.697L241.873 337.373C242.404 343.213 242.892 346.381 244.379 351.683L243.237 351.6C239.588 348.732 237.643 346.915 234.472 343.056C230.622 341.081 228.222 340.518 223.746 339.957C232.395 356.682 231 372.79 230.206 374.481C232.149 378.67 234.876 379.141 240.053 379.625C242.599 378.507 244.05 377.659 246.732 375.26C247.286 375.393 247.509 375.642 247.805 376.287C246.085 376.854 244.277 379.356 241.373 382.989C244.844 386.197 246.694 387.435 249.899 389.091Z" fill="#F9F1E4"/>
<path d="M261.958 399.415C263.507 386.891 265.493 381.753 271.425 376.619L281.035 379.433C269.613 397.007 273.154 406.15 273.444 422.887C268.964 421.907 266.542 421.035 262.32 419.117C262.226 410.333 260.519 405.917 254.714 398.888C250.662 395.977 248.747 395.611 245.718 396.33L246.733 393.971C251.071 394.456 254.51 395.756 261.958 399.415Z" fill="#F9F1E4"/>
</svg>
