<svg width="223" height="354" viewBox="0 0 223 354" fill="none" xmlns="http://www.w3.org/2000/svg">
<path d="M132.424 136.091C130.285 130.316 125.659 125.988 120.097 123.41C109.893 118.682 98.7521 116.169 87.5676 115.4C76.5798 114.645 65.4575 114.85 54.7398 117.572C46.5266 119.658 35.9372 122.843 30.8997 130.28C23.7442 140.843 27.4086 155.515 33.5878 165.307C37.6621 171.763 42.0642 174.998 49.6079 176.928C58.174 179.121 67.2806 180.027 76.1091 180.078C90.4418 180.162 103.698 178.466 115.046 169.108C121.837 163.509 128.027 155.36 131.175 147.06C131.866 145.239 135.501 136.163 132.424 134.624" stroke="#E75935" stroke-width="3" stroke-linecap="round"/>
<path d="M30.7636 130.226C29.7158 125.641 29.7861 121.217 29.7861 116.541C29.7861 106.365 30.1813 96.6345 32.0398 86.5638C33.802 77.0153 36.0431 67.4291 38.3664 57.999C39.5053 53.3766 40.2738 48.6988 41.5433 44.0968C44.548 33.2047 45.234 21.6148 48.3858 10.7803C50.906 2.11713 57.3652 -0.512182 64.8676 4.58945C74.5105 11.1466 79.4664 20.4462 80.5076 31.7694C81.3558 40.9934 80.0183 51.0528 77.195 59.8454C75.0283 66.5931 72.8411 73.2899 70.1624 79.8571C67.1584 87.2216 64.2989 94.6325 61.7722 102.177C60.4763 106.046 59.0311 110.01 58.6224 114.097" stroke="#E75935" stroke-width="3" stroke-linecap="round"/>
<path d="M93.8125 116.54C94.1257 106.362 97.5644 94.69 101.958 85.532C109.866 69.0502 118.213 50.6509 131.311 37.5529C135.03 33.8334 139.489 36.7145 142.579 40.2954C148.032 46.6144 146.823 56.8104 146.57 64.5157C146.264 73.8599 139.074 81.6161 134.65 89.3877C130.14 97.3109 124.283 104.45 119.228 112.033C117.278 114.958 114.864 117.937 113.363 120.939" stroke="#E75935" stroke-width="3" stroke-linecap="round"/>
<path d="M99.189 116.54C99.3283 109.155 104.351 101.52 107.715 95.0625C109.312 91.9969 111.681 89.4672 113.146 86.3465C114.91 82.5849 117.146 79.1081 119.228 75.5125C120.279 73.6972 129.936 58.5917 131.338 67.2852C132.138 72.2456 133.389 77.9148 131.664 82.8438C129.638 88.6312 126.059 93.4996 122.215 98.1851C117.915 103.425 113.644 108.217 108.964 113.119C107.878 114.257 106 116.635 105.543 118.007" stroke="#E75935" stroke-width="3" stroke-linecap="round"/>
<path d="M36.1401 124.36C36.1401 118.749 36.1401 113.137 36.1401 107.526C36.1401 101.57 37.8995 96.594 40.0501 91.1254C42.1007 85.911 43.598 80.402 45.1549 75.0237C46.5654 70.1512 48.4921 64.6909 48.8205 59.6009C49.4002 50.6149 50.4783 41.3265 54.6855 33.2627C55.662 31.3912 57.3349 30.3746 59.1114 29.4342C61.5512 28.1425 64.359 32.538 65.4652 34.2131C67.351 37.0688 67.4202 42.2921 67.4202 45.6715C67.4202 50.0348 66.9712 53.7552 65.8453 57.9989C62.7542 69.6501 59.2576 81.2487 55.7173 92.7545C54.9709 95.1803 55.5534 98.8991 53.9524 100.9C53.4659 101.508 53.8961 102.4 53.6809 103.1C53.2434 104.521 52.8753 105.172 52.7305 106.765C52.4925 109.383 52.0379 112.008 51.7802 114.585C51.6025 116.362 50.8027 118.219 50.8027 119.962" stroke="#E75935" stroke-width="3" stroke-linecap="round"/>
<path d="M97.2358 131.546C96.4112 133.711 95.3768 137.965 98.9843 137.965C102.108 137.965 103.106 134.984 103.607 132.409C104.139 129.673 100.696 128.825 98.7209 128.983C96.1483 129.189 95.5112 131.975 95.5112 134.133" stroke="#E75935" stroke-width="3" stroke-linecap="round"/>
<path d="M53.2591 135.426C53.2591 137.948 51.7667 142.969 55.6065 142.756C58.7865 142.579 58.9311 138.896 58.864 136.48C58.8233 135.016 55.195 134.633 54.2172 135.187C53.2144 135.755 53.2591 137.041 53.2591 138.013" stroke="#E75935" stroke-width="3" stroke-linecap="round"/>
<path d="M55.8457 153.103C57.3126 155.604 58.4647 157.687 61.3069 158.684C63.9208 159.601 66.6926 160.302 69.4028 160.864C76.2195 162.277 82.7829 161.943 89.2833 159.475C94.5578 157.472 101.274 155.647 103.272 149.654" stroke="#E75935" stroke-width="3" stroke-linecap="round"/>
<path d="M43.6798 177.832C41.7212 181.967 41.7635 186.822 39.8422 191.004C37.6783 195.713 36.655 202.78 36.655 208.013C36.655 215.757 34.5095 223.026 33.858 230.649C33.2148 238.174 32.4522 245.792 32.5571 253.349C32.626 258.307 33.1551 264.101 34.0857 268.96C35.4838 276.262 36.7473 285.119 42.4765 290.49C44.8656 292.73 46.4365 293.831 49.8591 294.621C55.5731 295.939 61.557 299.011 67.4863 299.011C72.9424 299.011 78.4946 299.525 83.7475 297.84C91.361 295.398 96.5633 290.298 103.001 285.872C107.825 282.555 111.886 275.775 114.839 270.814C117.974 265.547 120.842 259.187 122.71 253.317C124.973 246.203 124.828 238.602 125.181 231.234C125.736 219.652 126.559 207.513 125.051 195.98C124.192 189.411 123.518 182.507 121.864 176.076C121.204 173.51 120.669 169.503 119.197 167.295" stroke="#E75935" stroke-width="3" stroke-linecap="round"/>
<path d="M126 224.521C129.544 224.39 132.033 222.515 134.781 220.424C138.884 217.302 143.613 215.538 147.888 212.781C150.529 211.077 152.964 208.974 155.595 207.22C157.85 205.717 159.802 205.09 161.45 202.894C164.258 199.15 168.667 188.904 164.507 184.584C161.932 181.91 159.933 179.659 155.888 180.063C150.001 180.652 144.144 186.404 139.497 189.657C134.94 192.847 129.117 197.213 126.585 202.276" stroke="#E75935" stroke-width="3" stroke-linecap="round"/>
<path d="M39.8748 225.323C33.629 223.449 28.0504 219.353 22.768 215.696C19.8655 213.687 17.8012 210.758 15.2553 208.346C12.8205 206.04 10.1987 204.094 8.26296 201.321C4.79913 196.36 -2.61711 186.14 6.05143 183.044C9.673 181.75 12.8294 181.288 15.8732 184.019C17.8516 185.795 20.4624 186.231 22.5403 187.857C23.789 188.834 24.3882 190.178 25.3698 191.369C26.4396 192.669 28.6978 194.299 30.1831 195.077C31.8753 195.963 31.0239 195.802 32.0694 197.224C33.3755 199 34.5446 200.644 35.777 202.492" stroke="#E75935" stroke-width="3" stroke-linecap="round"/>
<path d="M45.4362 293.742C45.2348 305.427 40.3555 316.636 40.1676 328.476C40.1047 332.438 38.5941 348.645 42.8019 349.616C48.005 350.817 50.3906 345.298 52.5912 342.071C56.9061 335.742 56.4217 329.738 57.437 322.427C58.4569 315.084 58.9005 307.612 58.9005 300.182" stroke="#E75935" stroke-width="3" stroke-linecap="round"/>
<path d="M82.3167 297.84C82.3167 309.012 83.9726 320.807 85.1136 331.989C85.7064 337.799 86.9474 344.811 90.7725 349.486C95.3502 355.081 102.802 347.857 105.343 343.502C111.737 332.541 108.899 317.943 108.107 306.069C107.692 299.84 106.545 292.874 102.806 287.888" stroke="#E75935" stroke-width="3" stroke-linecap="round"/>
<path d="M181.639 129.877C176.55 141.31 169.426 151.859 164.362 163.297C160.967 170.964 158.085 178.872 154.974 186.658C153.287 190.88 150.88 194.383 148.557 198.292C146.882 201.111 145.91 204.364 144.698 207.397C144.032 209.066 143.924 209.337 144.698 207.397" stroke="#E75935" stroke-width="3" stroke-linecap="round"/>
<path d="M186.47 120.273C179.512 117.493 179.408 122.044 176.297 126.363C173.73 129.926 173.755 132.939 178.592 134.871C183.883 136.985 186.817 131.071 188.438 127.664C190.383 123.576 187.184 117.397 181.873 119.324" stroke="#E75935" stroke-width="3" stroke-linecap="round"/>
<path d="M176.054 121.435C169.236 118.712 172.101 114.245 172.304 108.402C172.376 106.306 174.072 98.274 178.554 101.337C182.962 104.348 179.216 107.486 179.496 110.881C179.706 113.422 179.962 116.636 178.993 119.06C176.16 126.153 181.286 115.813 182.161 113.622C183.496 110.28 186.029 105.896 190.324 105.644C197.958 105.196 195.122 118.909 191.22 120.84C186.241 123.303 190.895 121.501 194.465 121.298C198.865 121.047 207.464 120.037 204.952 126.325C201.985 133.753 199.621 136.564 190.804 134.475C189.052 134.061 183.957 132.043 186.19 133.569C191.469 137.175 186.883 144.152 185.322 148.059C183.601 152.367 180.529 151.389 178.118 147.547C175.115 142.763 175.311 140.734 177.171 136.078" stroke="#E75935" stroke-width="3" stroke-linecap="round"/>
<path d="M176.924 134.205C175.744 133.879 173.945 136.302 172.889 136.832C170.566 137.998 167.936 138.558 165.456 139.383C159.854 141.248 161.222 133.651 162.428 130.632C164.413 125.663 171.449 119.595 177.771 122.121" stroke="#E75935" stroke-width="3" stroke-linecap="round"/>
<path d="M157.725 179.772C159.992 175.599 169.316 173.401 173.752 171.485C178.59 169.396 183.81 167.493 188.856 165.787C193.546 164.201 197.789 162.255 202.441 160.567C206.15 159.221 207.272 158.596 203.212 161.959C190.305 172.653 170.891 182.104 153.011 184.1" stroke="#E75935" stroke-width="3" stroke-linecap="round"/>
</svg>
